<?xml version="1.0" standalone="no"?>
<!DOCTYPE svg PUBLIC "-//W3C//DTD SVG 20010904//EN"
 "http://www.w3.org/TR/2001/REC-SVG-20010904/DTD/svg10.dtd">
<svg version="1.0" xmlns="http://www.w3.org/2000/svg"
 width="92.000000pt" height="92.000000pt" viewBox="0 0 92.000000 92.000000"
 preserveAspectRatio="xMidYMid meet">
<metadata>
Created by potrace 1.11, written by Peter Selinger 2001-2013
</metadata>
<g transform="translate(0.000000,92.000000) scale(0.100000,-0.100000)"
fill="#000000" stroke="none">
<path d="M713 853 c9 -14 -26 -36 -38 -25 -5 4 -6 0 -3 -8 7 -20 -13 -40 -41
-40 -5 0 -11 -10 -13 -22 -2 -13 -9 -22 -17 -20 -7 1 -19 -2 -27 -9 -7 -6 -18
-8 -23 -5 -5 4 -13 1 -17 -5 -4 -8 -3 -9 4 -5 7 4 12 2 12 -3 0 -6 -5 -11 -10
-11 -6 0 -28 -18 -50 -40 -22 -22 -44 -40 -50 -40 -6 0 -9 -4 -5 -9 3 -5 -1
-15 -8 -23 -8 -7 -11 -20 -9 -28 4 -12 3 -13 -10 -3 -17 15 -28 7 -28 -19 0
-11 -4 -17 -9 -13 -5 3 -13 0 -17 -6 -4 -7 -3 -9 4 -5 6 3 13 2 17 -4 3 -5 -1
-10 -9 -10 -9 0 -16 -9 -16 -20 0 -12 -5 -26 -10 -33 -51 -61 -60 -75 -40 -62
6 3 10 1 10 -4 0 -6 -4 -11 -8 -11 -5 0 -10 -25 -11 -56 -1 -45 -8 -66 -33
-103 -17 -25 -36 -49 -41 -52 -5 -3 -8 -9 -7 -13 4 -12 -22 -66 -31 -66 -5 0
-9 -4 -9 -10 0 -28 67 11 71 42 1 4 2 12 3 16 3 21 60 114 72 119 8 3 22 -1
32 -8 15 -13 16 -12 3 4 -12 15 -11 17 3 17 9 0 16 5 16 11 0 5 5 7 10 4 6 -3
10 0 10 8 0 8 9 17 20 20 11 3 18 1 14 -4 -3 -5 2 -6 10 -3 9 3 13 10 10 15
-3 5 10 16 28 24 23 10 27 14 13 15 -23 0 -9 16 20 22 13 2 19 10 17 22 -2 10
0 16 5 14 4 -3 22 10 40 29 18 18 29 33 25 33 -3 0 3 7 15 15 14 10 19 22 16
35 -4 15 -2 19 9 15 9 -4 15 0 15 9 0 8 -5 12 -11 9 -6 -4 -3 3 7 14 19 21 23
43 7 43 -5 0 7 15 26 34 20 19 33 40 29 45 -3 6 -1 11 4 11 6 0 10 6 9 13 -2
6 2 11 8 10 7 -1 10 5 7 16 -2 9 4 33 15 52 13 21 17 41 13 53 -5 14 -10 16
-15 7 -6 -9 -11 -9 -24 1 -11 9 -13 9 -9 1z m-228 -342 c3 -5 2 -12 -3 -15 -5
-3 -9 1 -9 9 0 17 3 19 12 6z m-138 -86 c0 -8 -4 -15 -9 -15 -10 0 -11 14 -1
23 9 10 10 9 10 -8z"/>
<path d="M595 761 c-3 -5 -2 -12 3 -15 5 -3 9 1 9 9 0 17 -3 19 -12 6z"/>
<path d="M746 758 c3 -5 10 -6 15 -3 13 9 11 12 -6 12 -8 0 -12 -4 -9 -9z"/>
</g>
</svg>
